<?xml version="1.0" encoding="UTF-8" standalone="no"?>
<!DOCTYPE svg PUBLIC "-//W3C//DTD SVG 1.1//EN"
 "http://www.w3.org/Graphics/SVG/1.1/DTD/svg11.dtd">
<!-- Generated by graphviz version 2.43.0 (0)
 -->
<!-- Title: %3 Pages: 1 -->
<svg width="1324pt" height="238pt"
 viewBox="0.00 0.00 1323.50 237.74" xmlns="http://www.w3.org/2000/svg" xmlns:xlink="http://www.w3.org/1999/xlink">
<g id="graph0" class="graph" transform="scale(1 1) rotate(0) translate(36 201.74)">
<title>%3</title>
<polygon fill="dimgray" stroke="transparent" points="-36,36 -36,-201.74 1287.5,-201.74 1287.5,36 -36,36"/>
<text text-anchor="middle" x="625.75" y="-150.54" font-family="Helvetica,sans-Serif" font-size="14.00">Sweep&#39;s Plan &amp; Progress</text>
<!-- start -->
<g id="node1" class="node">
<title>start</title>
</g>
<!-- 44808f7d&#45;406b&#45;4f5f&#45;a2f4&#45;a2ab1920ceb0 -->
<g id="node3" class="node">
<title>44808f7d&#45;406b&#45;4f5f&#45;a2f4&#45;a2ab1920ceb0</title>
<ellipse fill="#0ee832" stroke="black" cx="208" cy="-99.87" rx="58.88" ry="26.74"/>
<text text-anchor="middle" x="208" y="-103.67" font-family="Helvetica,sans-Serif" font-size="14.00">✓ Create</text>
<text text-anchor="middle" x="208" y="-88.67" font-family="Helvetica,sans-Serif" font-size="14.00">.gitignore</text>
</g>
<!-- start&#45;&gt;44808f7d&#45;406b&#45;4f5f&#45;a2f4&#45;a2ab1920ceb0 -->
<g id="edge8" class="edge">
<title>start&#45;&gt;44808f7d&#45;406b&#45;4f5f&#45;a2f4&#45;a2ab1920ceb0</title>
<path fill="none" stroke="black" d="M97.71,-99.87C101.41,-99.87 119.08,-99.87 139.23,-99.87"/>
<polygon fill="black" stroke="black" points="139.28,-103.37 149.28,-99.87 139.28,-96.37 139.28,-103.37"/>
<text text-anchor="middle" x="123.41" y="-106.67" font-family="Helvetica,sans-Serif" font-size="14.00">Start</text>
</g>
<!-- end -->
<g id="node2" class="node">
<title>end</title>
</g>
<!-- 6f06334d&#45;48ac&#45;40ca&#45;a500&#45;5f92a094368b -->
<g id="node4" class="node">
<title>6f06334d&#45;48ac&#45;40ca&#45;a500&#45;5f92a094368b</title>
<ellipse fill="white" stroke="black" cx="441" cy="-99.87" rx="69.09" ry="26.74"/>
<text text-anchor="middle" x="441" y="-103.67" font-family="Helvetica,sans-Serif" font-size="14.00">▶ Create</text>
<text text-anchor="middle" x="441" y="-88.67" font-family="Helvetica,sans-Serif" font-size="14.00">src/main.py</text>
</g>
<!-- 44808f7d&#45;406b&#45;4f5f&#45;a2f4&#45;a2ab1920ceb0&#45;&gt;6f06334d&#45;48ac&#45;40ca&#45;a500&#45;5f92a094368b -->
<g id="edge2" class="edge">
<title>44808f7d&#45;406b&#45;4f5f&#45;a2f4&#45;a2ab1920ceb0&#45;&gt;6f06334d&#45;48ac&#45;40ca&#45;a500&#45;5f92a094368b</title>
<path fill="none" stroke="black" d="M266.71,-99.87C298.24,-99.87 329.78,-99.87 361.32,-99.87"/>
<polygon fill="black" stroke="black" points="361.55,-103.37 371.55,-99.87 361.55,-96.37 361.55,-103.37"/>
</g>
<!-- d3fca37e&#45;d010&#45;426b&#45;9b8e&#45;81ba20df95be -->
<g id="node7" class="node">
<title>d3fca37e&#45;d010&#45;426b&#45;9b8e&#45;81ba20df95be</title>
<polygon fill="yellow" stroke="black" points="278,-36 0,-36 0,0 278,0 278,-36"/>
<text text-anchor="middle" x="139" y="-14.3" font-family="Helvetica,sans-Serif" font-size="14.00">⋯ Run GitHub Actions for `.gitignore`</text>
</g>
<!-- 44808f7d&#45;406b&#45;4f5f&#45;a2f4&#45;a2ab1920ceb0&#45;&gt;d3fca37e&#45;d010&#45;426b&#45;9b8e&#45;81ba20df95be -->
<g id="edge1" class="edge">
<title>44808f7d&#45;406b&#45;4f5f&#45;a2f4&#45;a2ab1920ceb0&#45;&gt;d3fca37e&#45;d010&#45;426b&#45;9b8e&#45;81ba20df95be</title>
<path fill="none" stroke="black" stroke-dasharray="5,2" d="M186.92,-74.47C178.56,-64.8 168.96,-53.68 160.55,-43.95"/>
<polygon fill="black" stroke="black" points="163.01,-41.44 153.83,-36.16 157.71,-46.02 163.01,-41.44"/>
</g>
<!-- 73b93287&#45;bdda&#45;4565&#45;87a8&#45;e91264dfbd93 -->
<g id="node5" class="node">
<title>73b93287&#45;bdda&#45;4565&#45;87a8&#45;e91264dfbd93</title>
<ellipse fill="white" stroke="black" cx="771" cy="-99.87" rx="101.65" ry="26.74"/>
<text text-anchor="middle" x="771" y="-103.67" font-family="Helvetica,sans-Serif" font-size="14.00">▶ Create</text>
<text text-anchor="middle" x="771" y="-88.67" font-family="Helvetica,sans-Serif" font-size="14.00">tests/test_main.py</text>
</g>
<!-- 6f06334d&#45;48ac&#45;40ca&#45;a500&#45;5f92a094368b&#45;&gt;73b93287&#45;bdda&#45;4565&#45;87a8&#45;e91264dfbd93 -->
<g id="edge4" class="edge">
<title>6f06334d&#45;48ac&#45;40ca&#45;a500&#45;5f92a094368b&#45;&gt;73b93287&#45;bdda&#45;4565&#45;87a8&#45;e91264dfbd93</title>
<path fill="none" stroke="black" d="M510.61,-99.87C560.01,-99.87 609.42,-99.87 658.82,-99.87"/>
<polygon fill="black" stroke="black" points="659.03,-103.37 669.03,-99.87 659.03,-96.37 659.03,-103.37"/>
</g>
<!-- 60603d3b&#45;7ab0&#45;4182&#45;adaa&#45;dde28329e308 -->
<g id="node8" class="node">
<title>60603d3b&#45;7ab0&#45;4182&#45;adaa&#45;dde28329e308</title>
<polygon fill="white" stroke="black" points="585.5,-36 296.5,-36 296.5,0 585.5,0 585.5,-36"/>
<text text-anchor="middle" x="441" y="-14.3" font-family="Helvetica,sans-Serif" font-size="14.00">▶ Run GitHub Actions for `src/main.py`</text>
</g>
<!-- 6f06334d&#45;48ac&#45;40ca&#45;a500&#45;5f92a094368b&#45;&gt;60603d3b&#45;7ab0&#45;4182&#45;adaa&#45;dde28329e308 -->
<g id="edge3" class="edge">
<title>6f06334d&#45;48ac&#45;40ca&#45;a500&#45;5f92a094368b&#45;&gt;60603d3b&#45;7ab0&#45;4182&#45;adaa&#45;dde28329e308</title>
<path fill="none" stroke="black" stroke-dasharray="5,2" d="M441,-72.72C441,-64.27 441,-54.89 441,-46.36"/>
<polygon fill="black" stroke="black" points="444.5,-46.15 441,-36.15 437.5,-46.15 444.5,-46.15"/>
</g>
<!-- 2f1d15b0&#45;ba89&#45;4433&#45;b4d4&#45;860e9f8301fe -->
<g id="node6" class="node">
<title>2f1d15b0&#45;ba89&#45;4433&#45;b4d4&#45;860e9f8301fe</title>
<ellipse fill="white" stroke="black" cx="1043" cy="-99.87" rx="73.58" ry="26.74"/>
<text text-anchor="middle" x="1043" y="-103.67" font-family="Helvetica,sans-Serif" font-size="14.00">▶ Modify</text>
<text text-anchor="middle" x="1043" y="-88.67" font-family="Helvetica,sans-Serif" font-size="14.00">README.md</text>
</g>
<!-- 73b93287&#45;bdda&#45;4565&#45;87a8&#45;e91264dfbd93&#45;&gt;2f1d15b0&#45;ba89&#45;4433&#45;b4d4&#45;860e9f8301fe -->
<g id="edge6" class="edge">
<title>73b93287&#45;bdda&#45;4565&#45;87a8&#45;e91264dfbd93&#45;&gt;2f1d15b0&#45;ba89&#45;4433&#45;b4d4&#45;860e9f8301fe</title>
<path fill="none" stroke="black" d="M873,-99.87C901.71,-99.87 930.42,-99.87 959.13,-99.87"/>
<polygon fill="black" stroke="black" points="959.29,-103.37 969.29,-99.87 959.29,-96.37 959.29,-103.37"/>
</g>
<!-- e48482f7&#45;c831&#45;4a58&#45;a211&#45;483dba89054b -->
<g id="node9" class="node">
<title>e48482f7&#45;c831&#45;4a58&#45;a211&#45;483dba89054b</title>
<polygon fill="white" stroke="black" points="938.5,-36 603.5,-36 603.5,0 938.5,0 938.5,-36"/>
<text text-anchor="middle" x="771" y="-14.3" font-family="Helvetica,sans-Serif" font-size="14.00">▶ Run GitHub Actions for `tests/test_main.py`</text>
</g>
<!-- 73b93287&#45;bdda&#45;4565&#45;87a8&#45;e91264dfbd93&#45;&gt;e48482f7&#45;c831&#45;4a58&#45;a211&#45;483dba89054b -->
<g id="edge5" class="edge">
<title>73b93287&#45;bdda&#45;4565&#45;87a8&#45;e91264dfbd93&#45;&gt;e48482f7&#45;c831&#45;4a58&#45;a211&#45;483dba89054b</title>
<path fill="none" stroke="black" stroke-dasharray="5,2" d="M771,-72.72C771,-64.27 771,-54.89 771,-46.36"/>
<polygon fill="black" stroke="black" points="774.5,-46.15 771,-36.15 767.5,-46.15 774.5,-46.15"/>
</g>
<!-- 2f1d15b0&#45;ba89&#45;4433&#45;b4d4&#45;860e9f8301fe&#45;&gt;end -->
<g id="edge9" class="edge">
<title>2f1d15b0&#45;ba89&#45;4433&#45;b4d4&#45;860e9f8301fe&#45;&gt;end</title>
<path fill="none" stroke="black" d="M1116.72,-99.87C1135.34,-99.87 1153.14,-99.87 1164.06,-99.87"/>
<polygon fill="black" stroke="black" points="1164.28,-103.37 1174.28,-99.87 1164.28,-96.37 1164.28,-103.37"/>
<text text-anchor="middle" x="1145.52" y="-106.67" font-family="Helvetica,sans-Serif" font-size="14.00">Finish</text>
</g>
<!-- 426b11d3&#45;6022&#45;434d&#45;861c&#45;2aaed6680f2c -->
<g id="node10" class="node">
<title>426b11d3&#45;6022&#45;434d&#45;861c&#45;2aaed6680f2c</title>
<polygon fill="white" stroke="black" points="1251.5,-36 956.5,-36 956.5,0 1251.5,0 1251.5,-36"/>
<text text-anchor="middle" x="1104" y="-14.3" font-family="Helvetica,sans-Serif" font-size="14.00">▶ Run GitHub Actions for `README.md`</text>
</g>
<!-- 2f1d15b0&#45;ba89&#45;4433&#45;b4d4&#45;860e9f8301fe&#45;&gt;426b11d3&#45;6022&#45;434d&#45;861c&#45;2aaed6680f2c -->
<g id="edge7" class="edge">
<title>2f1d15b0&#45;ba89&#45;4433&#45;b4d4&#45;860e9f8301fe&#45;&gt;426b11d3&#45;6022&#45;434d&#45;861c&#45;2aaed6680f2c</title>
<path fill="none" stroke="black" stroke-dasharray="5,2" d="M1062.3,-73.6C1069.46,-64.22 1077.58,-53.59 1084.74,-44.22"/>
<polygon fill="black" stroke="black" points="1087.7,-46.11 1090.99,-36.04 1082.14,-41.86 1087.7,-46.11"/>
</g>
</g>
</svg>
