<?xml version="1.0" encoding="UTF-8" standalone="no"?>
<!DOCTYPE svg PUBLIC "-//W3C//DTD SVG 1.1//EN"
 "http://www.w3.org/Graphics/SVG/1.1/DTD/svg11.dtd">
<!-- Generated by graphviz version 2.43.0 (0)
 -->
<!-- Title: %3 Pages: 1 -->
<svg width="1320pt" height="238pt"
 viewBox="0.00 0.00 1320.00 237.74" xmlns="http://www.w3.org/2000/svg" xmlns:xlink="http://www.w3.org/1999/xlink">
<g id="graph0" class="graph" transform="scale(1 1) rotate(0) translate(36 201.74)">
<title>%3</title>
<polygon fill="dimgray" stroke="transparent" points="-36,36 -36,-201.74 1284,-201.74 1284,36 -36,36"/>
<text text-anchor="middle" x="624" y="-150.54" font-family="Helvetica,sans-Serif" font-size="14.00">Sweep&#39;s Plan &amp; Progress</text>
<!-- start -->
<g id="node1" class="node">
<title>start</title>
</g>
<!-- 44808f7d&#45;406b&#45;4f5f&#45;a2f4&#45;a2ab1920ceb0 -->
<g id="node3" class="node">
<title>44808f7d&#45;406b&#45;4f5f&#45;a2f4&#45;a2ab1920ceb0</title>
<ellipse fill="#0ee832" stroke="black" cx="205.5" cy="-99.87" rx="58.88" ry="26.74"/>
<text text-anchor="middle" x="205.5" y="-103.67" font-family="Helvetica,sans-Serif" font-size="14.00">✓ Create</text>
<text text-anchor="middle" x="205.5" y="-88.67" font-family="Helvetica,sans-Serif" font-size="14.00">.gitignore</text>
</g>
<!-- start&#45;&gt;44808f7d&#45;406b&#45;4f5f&#45;a2f4&#45;a2ab1920ceb0 -->
<g id="edge8" class="edge">
<title>start&#45;&gt;44808f7d&#45;406b&#45;4f5f&#45;a2f4&#45;a2ab1920ceb0</title>
<path fill="none" stroke="black" d="M95.21,-99.87C98.91,-99.87 116.58,-99.87 136.73,-99.87"/>
<polygon fill="black" stroke="black" points="136.78,-103.37 146.78,-99.87 136.78,-96.37 136.78,-103.37"/>
<text text-anchor="middle" x="120.91" y="-106.67" font-family="Helvetica,sans-Serif" font-size="14.00">Start</text>
</g>
<!-- end -->
<g id="node2" class="node">
<title>end</title>
</g>
<!-- 6f06334d&#45;48ac&#45;40ca&#45;a500&#45;5f92a094368b -->
<g id="node4" class="node">
<title>6f06334d&#45;48ac&#45;40ca&#45;a500&#45;5f92a094368b</title>
<ellipse fill="white" stroke="black" cx="437.5" cy="-99.87" rx="69.09" ry="26.74"/>
<text text-anchor="middle" x="437.5" y="-103.67" font-family="Helvetica,sans-Serif" font-size="14.00">▶ Create</text>
<text text-anchor="middle" x="437.5" y="-88.67" font-family="Helvetica,sans-Serif" font-size="14.00">src/main.py</text>
</g>
<!-- 44808f7d&#45;406b&#45;4f5f&#45;a2f4&#45;a2ab1920ceb0&#45;&gt;6f06334d&#45;48ac&#45;40ca&#45;a500&#45;5f92a094368b -->
<g id="edge2" class="edge">
<title>44808f7d&#45;406b&#45;4f5f&#45;a2f4&#45;a2ab1920ceb0&#45;&gt;6f06334d&#45;48ac&#45;40ca&#45;a500&#45;5f92a094368b</title>
<path fill="none" stroke="black" d="M264.41,-99.87C295.62,-99.87 326.84,-99.87 358.06,-99.87"/>
<polygon fill="black" stroke="black" points="358.19,-103.37 368.19,-99.87 358.19,-96.37 358.19,-103.37"/>
</g>
<!-- d3fca37e&#45;d010&#45;426b&#45;9b8e&#45;81ba20df95be -->
<g id="node7" class="node">
<title>d3fca37e&#45;d010&#45;426b&#45;9b8e&#45;81ba20df95be</title>
<polygon fill="#0ee832" stroke="black" points="275,-36 0,-36 0,0 275,0 275,-36"/>
<text text-anchor="middle" x="137.5" y="-14.3" font-family="Helvetica,sans-Serif" font-size="14.00">✓ Run GitHub Actions for `.gitignore`</text>
</g>
<!-- 44808f7d&#45;406b&#45;4f5f&#45;a2f4&#45;a2ab1920ceb0&#45;&gt;d3fca37e&#45;d010&#45;426b&#45;9b8e&#45;81ba20df95be -->
<g id="edge1" class="edge">
<title>44808f7d&#45;406b&#45;4f5f&#45;a2f4&#45;a2ab1920ceb0&#45;&gt;d3fca37e&#45;d010&#45;426b&#45;9b8e&#45;81ba20df95be</title>
<path fill="none" stroke="black" stroke-dasharray="5,2" d="M184.73,-74.47C176.49,-64.8 167.02,-53.68 158.74,-43.95"/>
<polygon fill="black" stroke="black" points="161.26,-41.51 152.11,-36.16 155.93,-46.04 161.26,-41.51"/>
</g>
<!-- 73b93287&#45;bdda&#45;4565&#45;87a8&#45;e91264dfbd93 -->
<g id="node5" class="node">
<title>73b93287&#45;bdda&#45;4565&#45;87a8&#45;e91264dfbd93</title>
<ellipse fill="white" stroke="black" cx="767.5" cy="-99.87" rx="101.65" ry="26.74"/>
<text text-anchor="middle" x="767.5" y="-103.67" font-family="Helvetica,sans-Serif" font-size="14.00">▶ Create</text>
<text text-anchor="middle" x="767.5" y="-88.67" font-family="Helvetica,sans-Serif" font-size="14.00">tests/test_main.py</text>
</g>
<!-- 6f06334d&#45;48ac&#45;40ca&#45;a500&#45;5f92a094368b&#45;&gt;73b93287&#45;bdda&#45;4565&#45;87a8&#45;e91264dfbd93 -->
<g id="edge4" class="edge">
<title>6f06334d&#45;48ac&#45;40ca&#45;a500&#45;5f92a094368b&#45;&gt;73b93287&#45;bdda&#45;4565&#45;87a8&#45;e91264dfbd93</title>
<path fill="none" stroke="black" d="M507.11,-99.87C556.51,-99.87 605.92,-99.87 655.32,-99.87"/>
<polygon fill="black" stroke="black" points="655.53,-103.37 665.53,-99.87 655.53,-96.37 655.53,-103.37"/>
</g>
<!-- 60603d3b&#45;7ab0&#45;4182&#45;adaa&#45;dde28329e308 -->
<g id="node8" class="node">
<title>60603d3b&#45;7ab0&#45;4182&#45;adaa&#45;dde28329e308</title>
<polygon fill="white" stroke="black" points="582,-36 293,-36 293,0 582,0 582,-36"/>
<text text-anchor="middle" x="437.5" y="-14.3" font-family="Helvetica,sans-Serif" font-size="14.00">▶ Run GitHub Actions for `src/main.py`</text>
</g>
<!-- 6f06334d&#45;48ac&#45;40ca&#45;a500&#45;5f92a094368b&#45;&gt;60603d3b&#45;7ab0&#45;4182&#45;adaa&#45;dde28329e308 -->
<g id="edge3" class="edge">
<title>6f06334d&#45;48ac&#45;40ca&#45;a500&#45;5f92a094368b&#45;&gt;60603d3b&#45;7ab0&#45;4182&#45;adaa&#45;dde28329e308</title>
<path fill="none" stroke="black" stroke-dasharray="5,2" d="M437.5,-72.72C437.5,-64.27 437.5,-54.89 437.5,-46.36"/>
<polygon fill="black" stroke="black" points="441,-46.15 437.5,-36.15 434,-46.15 441,-46.15"/>
</g>
<!-- 2f1d15b0&#45;ba89&#45;4433&#45;b4d4&#45;860e9f8301fe -->
<g id="node6" class="node">
<title>2f1d15b0&#45;ba89&#45;4433&#45;b4d4&#45;860e9f8301fe</title>
<ellipse fill="white" stroke="black" cx="1039.5" cy="-99.87" rx="73.58" ry="26.74"/>
<text text-anchor="middle" x="1039.5" y="-103.67" font-family="Helvetica,sans-Serif" font-size="14.00">▶ Modify</text>
<text text-anchor="middle" x="1039.5" y="-88.67" font-family="Helvetica,sans-Serif" font-size="14.00">README.md</text>
</g>
<!-- 73b93287&#45;bdda&#45;4565&#45;87a8&#45;e91264dfbd93&#45;&gt;2f1d15b0&#45;ba89&#45;4433&#45;b4d4&#45;860e9f8301fe -->
<g id="edge6" class="edge">
<title>73b93287&#45;bdda&#45;4565&#45;87a8&#45;e91264dfbd93&#45;&gt;2f1d15b0&#45;ba89&#45;4433&#45;b4d4&#45;860e9f8301fe</title>
<path fill="none" stroke="black" d="M869.5,-99.87C898.21,-99.87 926.92,-99.87 955.63,-99.87"/>
<polygon fill="black" stroke="black" points="955.79,-103.37 965.79,-99.87 955.79,-96.37 955.79,-103.37"/>
</g>
<!-- e48482f7&#45;c831&#45;4a58&#45;a211&#45;483dba89054b -->
<g id="node9" class="node">
<title>e48482f7&#45;c831&#45;4a58&#45;a211&#45;483dba89054b</title>
<polygon fill="white" stroke="black" points="935,-36 600,-36 600,0 935,0 935,-36"/>
<text text-anchor="middle" x="767.5" y="-14.3" font-family="Helvetica,sans-Serif" font-size="14.00">▶ Run GitHub Actions for `tests/test_main.py`</text>
</g>
<!-- 73b93287&#45;bdda&#45;4565&#45;87a8&#45;e91264dfbd93&#45;&gt;e48482f7&#45;c831&#45;4a58&#45;a211&#45;483dba89054b -->
<g id="edge5" class="edge">
<title>73b93287&#45;bdda&#45;4565&#45;87a8&#45;e91264dfbd93&#45;&gt;e48482f7&#45;c831&#45;4a58&#45;a211&#45;483dba89054b</title>
<path fill="none" stroke="black" stroke-dasharray="5,2" d="M767.5,-72.72C767.5,-64.27 767.5,-54.89 767.5,-46.36"/>
<polygon fill="black" stroke="black" points="771,-46.15 767.5,-36.15 764,-46.15 771,-46.15"/>
</g>
<!-- 2f1d15b0&#45;ba89&#45;4433&#45;b4d4&#45;860e9f8301fe&#45;&gt;end -->
<g id="edge9" class="edge">
<title>2f1d15b0&#45;ba89&#45;4433&#45;b4d4&#45;860e9f8301fe&#45;&gt;end</title>
<path fill="none" stroke="black" d="M1113.22,-99.87C1131.84,-99.87 1149.64,-99.87 1160.56,-99.87"/>
<polygon fill="black" stroke="black" points="1160.78,-103.37 1170.78,-99.87 1160.78,-96.37 1160.78,-103.37"/>
<text text-anchor="middle" x="1142.02" y="-106.67" font-family="Helvetica,sans-Serif" font-size="14.00">Finish</text>
</g>
<!-- 426b11d3&#45;6022&#45;434d&#45;861c&#45;2aaed6680f2c -->
<g id="node10" class="node">
<title>426b11d3&#45;6022&#45;434d&#45;861c&#45;2aaed6680f2c</title>
<polygon fill="white" stroke="black" points="1248,-36 953,-36 953,0 1248,0 1248,-36"/>
<text text-anchor="middle" x="1100.5" y="-14.3" font-family="Helvetica,sans-Serif" font-size="14.00">▶ Run GitHub Actions for `README.md`</text>
</g>
<!-- 2f1d15b0&#45;ba89&#45;4433&#45;b4d4&#45;860e9f8301fe&#45;&gt;426b11d3&#45;6022&#45;434d&#45;861c&#45;2aaed6680f2c -->
<g id="edge7" class="edge">
<title>2f1d15b0&#45;ba89&#45;4433&#45;b4d4&#45;860e9f8301fe&#45;&gt;426b11d3&#45;6022&#45;434d&#45;861c&#45;2aaed6680f2c</title>
<path fill="none" stroke="black" stroke-dasharray="5,2" d="M1058.8,-73.6C1065.96,-64.22 1074.08,-53.59 1081.24,-44.22"/>
<polygon fill="black" stroke="black" points="1084.2,-46.11 1087.49,-36.04 1078.64,-41.86 1084.2,-46.11"/>
</g>
</g>
</svg>
