<?xml version="1.0" encoding="UTF-8" standalone="no"?>
<!DOCTYPE svg PUBLIC "-//W3C//DTD SVG 1.1//EN"
 "http://www.w3.org/Graphics/SVG/1.1/DTD/svg11.dtd">
<!-- Generated by graphviz version 2.43.0 (0)
 -->
<!-- Title: %3 Pages: 1 -->
<svg width="1328pt" height="238pt"
 viewBox="0.00 0.00 1328.00 237.74" xmlns="http://www.w3.org/2000/svg" xmlns:xlink="http://www.w3.org/1999/xlink">
<g id="graph0" class="graph" transform="scale(1 1) rotate(0) translate(36 201.74)">
<title>%3</title>
<polygon fill="dimgray" stroke="transparent" points="-36,36 -36,-201.74 1292,-201.74 1292,36 -36,36"/>
<text text-anchor="middle" x="628" y="-150.54" font-family="Helvetica,sans-Serif" font-size="14.00">Sweep&#39;s Plan &amp; Progress</text>
<!-- start -->
<g id="node1" class="node">
<title>start</title>
</g>
<!-- 44808f7d&#45;406b&#45;4f5f&#45;a2f4&#45;a2ab1920ceb0 -->
<g id="node3" class="node">
<title>44808f7d&#45;406b&#45;4f5f&#45;a2f4&#45;a2ab1920ceb0</title>
<ellipse fill="#0ee832" stroke="black" cx="206.5" cy="-99.87" rx="58.88" ry="26.74"/>
<text text-anchor="middle" x="206.5" y="-103.67" font-family="Helvetica,sans-Serif" font-size="14.00">✓ Create</text>
<text text-anchor="middle" x="206.5" y="-88.67" font-family="Helvetica,sans-Serif" font-size="14.00">.gitignore</text>
</g>
<!-- start&#45;&gt;44808f7d&#45;406b&#45;4f5f&#45;a2f4&#45;a2ab1920ceb0 -->
<g id="edge8" class="edge">
<title>start&#45;&gt;44808f7d&#45;406b&#45;4f5f&#45;a2f4&#45;a2ab1920ceb0</title>
<path fill="none" stroke="black" d="M96.21,-99.87C99.91,-99.87 117.58,-99.87 137.73,-99.87"/>
<polygon fill="black" stroke="black" points="137.78,-103.37 147.78,-99.87 137.78,-96.37 137.78,-103.37"/>
<text text-anchor="middle" x="121.91" y="-106.67" font-family="Helvetica,sans-Serif" font-size="14.00">Start</text>
</g>
<!-- end -->
<g id="node2" class="node">
<title>end</title>
</g>
<!-- 6f06334d&#45;48ac&#45;40ca&#45;a500&#45;5f92a094368b -->
<g id="node4" class="node">
<title>6f06334d&#45;48ac&#45;40ca&#45;a500&#45;5f92a094368b</title>
<ellipse fill="#0ee832" stroke="black" cx="438.5" cy="-99.87" rx="69.09" ry="26.74"/>
<text text-anchor="middle" x="438.5" y="-103.67" font-family="Helvetica,sans-Serif" font-size="14.00">✓ Create</text>
<text text-anchor="middle" x="438.5" y="-88.67" font-family="Helvetica,sans-Serif" font-size="14.00">src/main.py</text>
</g>
<!-- 44808f7d&#45;406b&#45;4f5f&#45;a2f4&#45;a2ab1920ceb0&#45;&gt;6f06334d&#45;48ac&#45;40ca&#45;a500&#45;5f92a094368b -->
<g id="edge2" class="edge">
<title>44808f7d&#45;406b&#45;4f5f&#45;a2f4&#45;a2ab1920ceb0&#45;&gt;6f06334d&#45;48ac&#45;40ca&#45;a500&#45;5f92a094368b</title>
<path fill="none" stroke="black" d="M265.41,-99.87C296.62,-99.87 327.84,-99.87 359.06,-99.87"/>
<polygon fill="black" stroke="black" points="359.19,-103.37 369.19,-99.87 359.19,-96.37 359.19,-103.37"/>
</g>
<!-- d3fca37e&#45;d010&#45;426b&#45;9b8e&#45;81ba20df95be -->
<g id="node7" class="node">
<title>d3fca37e&#45;d010&#45;426b&#45;9b8e&#45;81ba20df95be</title>
<polygon fill="#0ee832" stroke="black" points="275,-36 0,-36 0,0 275,0 275,-36"/>
<text text-anchor="middle" x="137.5" y="-14.3" font-family="Helvetica,sans-Serif" font-size="14.00">✓ Run GitHub Actions for `.gitignore`</text>
</g>
<!-- 44808f7d&#45;406b&#45;4f5f&#45;a2f4&#45;a2ab1920ceb0&#45;&gt;d3fca37e&#45;d010&#45;426b&#45;9b8e&#45;81ba20df95be -->
<g id="edge1" class="edge">
<title>44808f7d&#45;406b&#45;4f5f&#45;a2f4&#45;a2ab1920ceb0&#45;&gt;d3fca37e&#45;d010&#45;426b&#45;9b8e&#45;81ba20df95be</title>
<path fill="none" stroke="black" stroke-dasharray="5,2" d="M185.42,-74.47C177.06,-64.8 167.46,-53.68 159.05,-43.95"/>
<polygon fill="black" stroke="black" points="161.51,-41.44 152.33,-36.16 156.21,-46.02 161.51,-41.44"/>
</g>
<!-- 73b93287&#45;bdda&#45;4565&#45;87a8&#45;e91264dfbd93 -->
<g id="node5" class="node">
<title>73b93287&#45;bdda&#45;4565&#45;87a8&#45;e91264dfbd93</title>
<ellipse fill="#0ee832" stroke="black" cx="770.5" cy="-99.87" rx="101.65" ry="26.74"/>
<text text-anchor="middle" x="770.5" y="-103.67" font-family="Helvetica,sans-Serif" font-size="14.00">✓ Create</text>
<text text-anchor="middle" x="770.5" y="-88.67" font-family="Helvetica,sans-Serif" font-size="14.00">tests/test_main.py</text>
</g>
<!-- 6f06334d&#45;48ac&#45;40ca&#45;a500&#45;5f92a094368b&#45;&gt;73b93287&#45;bdda&#45;4565&#45;87a8&#45;e91264dfbd93 -->
<g id="edge4" class="edge">
<title>6f06334d&#45;48ac&#45;40ca&#45;a500&#45;5f92a094368b&#45;&gt;73b93287&#45;bdda&#45;4565&#45;87a8&#45;e91264dfbd93</title>
<path fill="none" stroke="black" d="M507.88,-99.87C558.05,-99.87 608.22,-99.87 658.39,-99.87"/>
<polygon fill="black" stroke="black" points="658.43,-103.37 668.43,-99.87 658.43,-96.37 658.43,-103.37"/>
</g>
<!-- 60603d3b&#45;7ab0&#45;4182&#45;adaa&#45;dde28329e308 -->
<g id="node8" class="node">
<title>60603d3b&#45;7ab0&#45;4182&#45;adaa&#45;dde28329e308</title>
<polygon fill="#0ee832" stroke="black" points="583.5,-36 293.5,-36 293.5,0 583.5,0 583.5,-36"/>
<text text-anchor="middle" x="438.5" y="-14.3" font-family="Helvetica,sans-Serif" font-size="14.00">✓ Run GitHub Actions for `src/main.py`</text>
</g>
<!-- 6f06334d&#45;48ac&#45;40ca&#45;a500&#45;5f92a094368b&#45;&gt;60603d3b&#45;7ab0&#45;4182&#45;adaa&#45;dde28329e308 -->
<g id="edge3" class="edge">
<title>6f06334d&#45;48ac&#45;40ca&#45;a500&#45;5f92a094368b&#45;&gt;60603d3b&#45;7ab0&#45;4182&#45;adaa&#45;dde28329e308</title>
<path fill="none" stroke="black" stroke-dasharray="5,2" d="M438.5,-72.72C438.5,-64.27 438.5,-54.89 438.5,-46.36"/>
<polygon fill="black" stroke="black" points="442,-46.15 438.5,-36.15 435,-46.15 442,-46.15"/>
</g>
<!-- 2f1d15b0&#45;ba89&#45;4433&#45;b4d4&#45;860e9f8301fe -->
<g id="node6" class="node">
<title>2f1d15b0&#45;ba89&#45;4433&#45;b4d4&#45;860e9f8301fe</title>
<ellipse fill="#0ee832" stroke="black" cx="1044.5" cy="-99.87" rx="73.58" ry="26.74"/>
<text text-anchor="middle" x="1044.5" y="-103.67" font-family="Helvetica,sans-Serif" font-size="14.00">✓ Modify</text>
<text text-anchor="middle" x="1044.5" y="-88.67" font-family="Helvetica,sans-Serif" font-size="14.00">README.md</text>
</g>
<!-- 73b93287&#45;bdda&#45;4565&#45;87a8&#45;e91264dfbd93&#45;&gt;2f1d15b0&#45;ba89&#45;4433&#45;b4d4&#45;860e9f8301fe -->
<g id="edge6" class="edge">
<title>73b93287&#45;bdda&#45;4565&#45;87a8&#45;e91264dfbd93&#45;&gt;2f1d15b0&#45;ba89&#45;4433&#45;b4d4&#45;860e9f8301fe</title>
<path fill="none" stroke="black" d="M872.45,-99.87C901.81,-99.87 931.16,-99.87 960.52,-99.87"/>
<polygon fill="black" stroke="black" points="960.91,-103.37 970.91,-99.87 960.91,-96.37 960.91,-103.37"/>
</g>
<!-- e48482f7&#45;c831&#45;4a58&#45;a211&#45;483dba89054b -->
<g id="node9" class="node">
<title>e48482f7&#45;c831&#45;4a58&#45;a211&#45;483dba89054b</title>
<polygon fill="#0ee832" stroke="black" points="939,-36 602,-36 602,0 939,0 939,-36"/>
<text text-anchor="middle" x="770.5" y="-14.3" font-family="Helvetica,sans-Serif" font-size="14.00">✓ Run GitHub Actions for `tests/test_main.py`</text>
</g>
<!-- 73b93287&#45;bdda&#45;4565&#45;87a8&#45;e91264dfbd93&#45;&gt;e48482f7&#45;c831&#45;4a58&#45;a211&#45;483dba89054b -->
<g id="edge5" class="edge">
<title>73b93287&#45;bdda&#45;4565&#45;87a8&#45;e91264dfbd93&#45;&gt;e48482f7&#45;c831&#45;4a58&#45;a211&#45;483dba89054b</title>
<path fill="none" stroke="black" stroke-dasharray="5,2" d="M770.5,-72.72C770.5,-64.27 770.5,-54.89 770.5,-46.36"/>
<polygon fill="black" stroke="black" points="774,-46.15 770.5,-36.15 767,-46.15 774,-46.15"/>
</g>
<!-- 2f1d15b0&#45;ba89&#45;4433&#45;b4d4&#45;860e9f8301fe&#45;&gt;end -->
<g id="edge9" class="edge">
<title>2f1d15b0&#45;ba89&#45;4433&#45;b4d4&#45;860e9f8301fe&#45;&gt;end</title>
<path fill="none" stroke="black" d="M1118.22,-99.87C1136.84,-99.87 1154.64,-99.87 1165.56,-99.87"/>
<polygon fill="black" stroke="black" points="1165.78,-103.37 1175.78,-99.87 1165.78,-96.37 1165.78,-103.37"/>
<text text-anchor="middle" x="1147.02" y="-106.67" font-family="Helvetica,sans-Serif" font-size="14.00">Finish</text>
</g>
<!-- 426b11d3&#45;6022&#45;434d&#45;861c&#45;2aaed6680f2c -->
<g id="node10" class="node">
<title>426b11d3&#45;6022&#45;434d&#45;861c&#45;2aaed6680f2c</title>
<polygon fill="yellow" stroke="black" points="1256,-36 957,-36 957,0 1256,0 1256,-36"/>
<text text-anchor="middle" x="1106.5" y="-14.3" font-family="Helvetica,sans-Serif" font-size="14.00">⋯ Run GitHub Actions for `README.md`</text>
</g>
<!-- 2f1d15b0&#45;ba89&#45;4433&#45;b4d4&#45;860e9f8301fe&#45;&gt;426b11d3&#45;6022&#45;434d&#45;861c&#45;2aaed6680f2c -->
<g id="edge7" class="edge">
<title>2f1d15b0&#45;ba89&#45;4433&#45;b4d4&#45;860e9f8301fe&#45;&gt;426b11d3&#45;6022&#45;434d&#45;861c&#45;2aaed6680f2c</title>
<path fill="none" stroke="black" stroke-dasharray="5,2" d="M1064.12,-73.6C1071.4,-64.22 1079.65,-53.59 1086.92,-44.22"/>
<polygon fill="black" stroke="black" points="1089.91,-46.08 1093.28,-36.04 1084.38,-41.79 1089.91,-46.08"/>
</g>
</g>
</svg>
