<?xml version="1.0" encoding="UTF-8" standalone="no"?>
<!DOCTYPE svg PUBLIC "-//W3C//DTD SVG 1.1//EN"
 "http://www.w3.org/Graphics/SVG/1.1/DTD/svg11.dtd">
<!-- Generated by graphviz version 2.43.0 (0)
 -->
<!-- Title: %3 Pages: 1 -->
<svg width="1320pt" height="238pt"
 viewBox="0.00 0.00 1319.50 237.74" xmlns="http://www.w3.org/2000/svg" xmlns:xlink="http://www.w3.org/1999/xlink">
<g id="graph0" class="graph" transform="scale(1 1) rotate(0) translate(36 201.74)">
<title>%3</title>
<polygon fill="dimgray" stroke="transparent" points="-36,36 -36,-201.74 1283.5,-201.74 1283.5,36 -36,36"/>
<text text-anchor="middle" x="623.75" y="-150.54" font-family="Helvetica,sans-Serif" font-size="14.00">Sweep&#39;s Plan &amp; Progress</text>
<!-- start -->
<g id="node1" class="node">
<title>start</title>
</g>
<!-- 44808f7d&#45;406b&#45;4f5f&#45;a2f4&#45;a2ab1920ceb0 -->
<g id="node3" class="node">
<title>44808f7d&#45;406b&#45;4f5f&#45;a2f4&#45;a2ab1920ceb0</title>
<ellipse fill="yellow" stroke="black" cx="205" cy="-99.87" rx="58.88" ry="26.74"/>
<text text-anchor="middle" x="205" y="-103.67" font-family="Helvetica,sans-Serif" font-size="14.00">⋯ Create</text>
<text text-anchor="middle" x="205" y="-88.67" font-family="Helvetica,sans-Serif" font-size="14.00">.gitignore</text>
</g>
<!-- start&#45;&gt;44808f7d&#45;406b&#45;4f5f&#45;a2f4&#45;a2ab1920ceb0 -->
<g id="edge8" class="edge">
<title>start&#45;&gt;44808f7d&#45;406b&#45;4f5f&#45;a2f4&#45;a2ab1920ceb0</title>
<path fill="none" stroke="black" d="M94.71,-99.87C98.41,-99.87 116.08,-99.87 136.23,-99.87"/>
<polygon fill="black" stroke="black" points="136.28,-103.37 146.28,-99.87 136.28,-96.37 136.28,-103.37"/>
<text text-anchor="middle" x="120.41" y="-106.67" font-family="Helvetica,sans-Serif" font-size="14.00">Start</text>
</g>
<!-- end -->
<g id="node2" class="node">
<title>end</title>
</g>
<!-- 6f06334d&#45;48ac&#45;40ca&#45;a500&#45;5f92a094368b -->
<g id="node4" class="node">
<title>6f06334d&#45;48ac&#45;40ca&#45;a500&#45;5f92a094368b</title>
<ellipse fill="white" stroke="black" cx="437" cy="-99.87" rx="69.09" ry="26.74"/>
<text text-anchor="middle" x="437" y="-103.67" font-family="Helvetica,sans-Serif" font-size="14.00">▶ Create</text>
<text text-anchor="middle" x="437" y="-88.67" font-family="Helvetica,sans-Serif" font-size="14.00">src/main.py</text>
</g>
<!-- 44808f7d&#45;406b&#45;4f5f&#45;a2f4&#45;a2ab1920ceb0&#45;&gt;6f06334d&#45;48ac&#45;40ca&#45;a500&#45;5f92a094368b -->
<g id="edge2" class="edge">
<title>44808f7d&#45;406b&#45;4f5f&#45;a2f4&#45;a2ab1920ceb0&#45;&gt;6f06334d&#45;48ac&#45;40ca&#45;a500&#45;5f92a094368b</title>
<path fill="none" stroke="black" d="M263.91,-99.87C295.12,-99.87 326.34,-99.87 357.56,-99.87"/>
<polygon fill="black" stroke="black" points="357.69,-103.37 367.69,-99.87 357.69,-96.37 357.69,-103.37"/>
</g>
<!-- d3fca37e&#45;d010&#45;426b&#45;9b8e&#45;81ba20df95be -->
<g id="node7" class="node">
<title>d3fca37e&#45;d010&#45;426b&#45;9b8e&#45;81ba20df95be</title>
<polygon fill="white" stroke="black" points="274,-36 0,-36 0,0 274,0 274,-36"/>
<text text-anchor="middle" x="137" y="-14.3" font-family="Helvetica,sans-Serif" font-size="14.00">▶ Run GitHub Actions for `.gitignore`</text>
</g>
<!-- 44808f7d&#45;406b&#45;4f5f&#45;a2f4&#45;a2ab1920ceb0&#45;&gt;d3fca37e&#45;d010&#45;426b&#45;9b8e&#45;81ba20df95be -->
<g id="edge1" class="edge">
<title>44808f7d&#45;406b&#45;4f5f&#45;a2f4&#45;a2ab1920ceb0&#45;&gt;d3fca37e&#45;d010&#45;426b&#45;9b8e&#45;81ba20df95be</title>
<path fill="none" stroke="black" stroke-dasharray="5,2" d="M184.23,-74.47C175.99,-64.8 166.52,-53.68 158.24,-43.95"/>
<polygon fill="black" stroke="black" points="160.76,-41.51 151.61,-36.16 155.43,-46.04 160.76,-41.51"/>
</g>
<!-- 73b93287&#45;bdda&#45;4565&#45;87a8&#45;e91264dfbd93 -->
<g id="node5" class="node">
<title>73b93287&#45;bdda&#45;4565&#45;87a8&#45;e91264dfbd93</title>
<ellipse fill="white" stroke="black" cx="767" cy="-99.87" rx="101.65" ry="26.74"/>
<text text-anchor="middle" x="767" y="-103.67" font-family="Helvetica,sans-Serif" font-size="14.00">▶ Create</text>
<text text-anchor="middle" x="767" y="-88.67" font-family="Helvetica,sans-Serif" font-size="14.00">tests/test_main.py</text>
</g>
<!-- 6f06334d&#45;48ac&#45;40ca&#45;a500&#45;5f92a094368b&#45;&gt;73b93287&#45;bdda&#45;4565&#45;87a8&#45;e91264dfbd93 -->
<g id="edge4" class="edge">
<title>6f06334d&#45;48ac&#45;40ca&#45;a500&#45;5f92a094368b&#45;&gt;73b93287&#45;bdda&#45;4565&#45;87a8&#45;e91264dfbd93</title>
<path fill="none" stroke="black" d="M506.61,-99.87C556.01,-99.87 605.42,-99.87 654.82,-99.87"/>
<polygon fill="black" stroke="black" points="655.03,-103.37 665.03,-99.87 655.03,-96.37 655.03,-103.37"/>
</g>
<!-- 60603d3b&#45;7ab0&#45;4182&#45;adaa&#45;dde28329e308 -->
<g id="node8" class="node">
<title>60603d3b&#45;7ab0&#45;4182&#45;adaa&#45;dde28329e308</title>
<polygon fill="white" stroke="black" points="581.5,-36 292.5,-36 292.5,0 581.5,0 581.5,-36"/>
<text text-anchor="middle" x="437" y="-14.3" font-family="Helvetica,sans-Serif" font-size="14.00">▶ Run GitHub Actions for `src/main.py`</text>
</g>
<!-- 6f06334d&#45;48ac&#45;40ca&#45;a500&#45;5f92a094368b&#45;&gt;60603d3b&#45;7ab0&#45;4182&#45;adaa&#45;dde28329e308 -->
<g id="edge3" class="edge">
<title>6f06334d&#45;48ac&#45;40ca&#45;a500&#45;5f92a094368b&#45;&gt;60603d3b&#45;7ab0&#45;4182&#45;adaa&#45;dde28329e308</title>
<path fill="none" stroke="black" stroke-dasharray="5,2" d="M437,-72.72C437,-64.27 437,-54.89 437,-46.36"/>
<polygon fill="black" stroke="black" points="440.5,-46.15 437,-36.15 433.5,-46.15 440.5,-46.15"/>
</g>
<!-- 2f1d15b0&#45;ba89&#45;4433&#45;b4d4&#45;860e9f8301fe -->
<g id="node6" class="node">
<title>2f1d15b0&#45;ba89&#45;4433&#45;b4d4&#45;860e9f8301fe</title>
<ellipse fill="white" stroke="black" cx="1039" cy="-99.87" rx="73.58" ry="26.74"/>
<text text-anchor="middle" x="1039" y="-103.67" font-family="Helvetica,sans-Serif" font-size="14.00">▶ Modify</text>
<text text-anchor="middle" x="1039" y="-88.67" font-family="Helvetica,sans-Serif" font-size="14.00">README.md</text>
</g>
<!-- 73b93287&#45;bdda&#45;4565&#45;87a8&#45;e91264dfbd93&#45;&gt;2f1d15b0&#45;ba89&#45;4433&#45;b4d4&#45;860e9f8301fe -->
<g id="edge6" class="edge">
<title>73b93287&#45;bdda&#45;4565&#45;87a8&#45;e91264dfbd93&#45;&gt;2f1d15b0&#45;ba89&#45;4433&#45;b4d4&#45;860e9f8301fe</title>
<path fill="none" stroke="black" d="M869,-99.87C897.71,-99.87 926.42,-99.87 955.13,-99.87"/>
<polygon fill="black" stroke="black" points="955.29,-103.37 965.29,-99.87 955.29,-96.37 955.29,-103.37"/>
</g>
<!-- e48482f7&#45;c831&#45;4a58&#45;a211&#45;483dba89054b -->
<g id="node9" class="node">
<title>e48482f7&#45;c831&#45;4a58&#45;a211&#45;483dba89054b</title>
<polygon fill="white" stroke="black" points="934.5,-36 599.5,-36 599.5,0 934.5,0 934.5,-36"/>
<text text-anchor="middle" x="767" y="-14.3" font-family="Helvetica,sans-Serif" font-size="14.00">▶ Run GitHub Actions for `tests/test_main.py`</text>
</g>
<!-- 73b93287&#45;bdda&#45;4565&#45;87a8&#45;e91264dfbd93&#45;&gt;e48482f7&#45;c831&#45;4a58&#45;a211&#45;483dba89054b -->
<g id="edge5" class="edge">
<title>73b93287&#45;bdda&#45;4565&#45;87a8&#45;e91264dfbd93&#45;&gt;e48482f7&#45;c831&#45;4a58&#45;a211&#45;483dba89054b</title>
<path fill="none" stroke="black" stroke-dasharray="5,2" d="M767,-72.72C767,-64.27 767,-54.89 767,-46.36"/>
<polygon fill="black" stroke="black" points="770.5,-46.15 767,-36.15 763.5,-46.15 770.5,-46.15"/>
</g>
<!-- 2f1d15b0&#45;ba89&#45;4433&#45;b4d4&#45;860e9f8301fe&#45;&gt;end -->
<g id="edge9" class="edge">
<title>2f1d15b0&#45;ba89&#45;4433&#45;b4d4&#45;860e9f8301fe&#45;&gt;end</title>
<path fill="none" stroke="black" d="M1112.72,-99.87C1131.34,-99.87 1149.14,-99.87 1160.06,-99.87"/>
<polygon fill="black" stroke="black" points="1160.28,-103.37 1170.28,-99.87 1160.28,-96.37 1160.28,-103.37"/>
<text text-anchor="middle" x="1141.52" y="-106.67" font-family="Helvetica,sans-Serif" font-size="14.00">Finish</text>
</g>
<!-- 426b11d3&#45;6022&#45;434d&#45;861c&#45;2aaed6680f2c -->
<g id="node10" class="node">
<title>426b11d3&#45;6022&#45;434d&#45;861c&#45;2aaed6680f2c</title>
<polygon fill="white" stroke="black" points="1247.5,-36 952.5,-36 952.5,0 1247.5,0 1247.5,-36"/>
<text text-anchor="middle" x="1100" y="-14.3" font-family="Helvetica,sans-Serif" font-size="14.00">▶ Run GitHub Actions for `README.md`</text>
</g>
<!-- 2f1d15b0&#45;ba89&#45;4433&#45;b4d4&#45;860e9f8301fe&#45;&gt;426b11d3&#45;6022&#45;434d&#45;861c&#45;2aaed6680f2c -->
<g id="edge7" class="edge">
<title>2f1d15b0&#45;ba89&#45;4433&#45;b4d4&#45;860e9f8301fe&#45;&gt;426b11d3&#45;6022&#45;434d&#45;861c&#45;2aaed6680f2c</title>
<path fill="none" stroke="black" stroke-dasharray="5,2" d="M1058.3,-73.6C1065.46,-64.22 1073.58,-53.59 1080.74,-44.22"/>
<polygon fill="black" stroke="black" points="1083.7,-46.11 1086.99,-36.04 1078.14,-41.86 1083.7,-46.11"/>
</g>
</g>
</svg>
